<svg width="440" height="440" viewBox="0 0 440 440" fill="none" xmlns="http://www.w3.org/2000/svg">
<rect width="439.201" height="439.201" fill="white"/>
<path d="M109.801 109.801H111.301C171.401 109.201 219.801 60.1006 219.601 0.000617606C159.501 -0.199382 110.401 48.2006 109.801 108.301V109.801C49.6006 109.601 0.60061 158.001 0.000610352 218.101V219.601H1.50061C61.6006 218.901 110.001 169.901 109.801 109.801C109.601 169.901 158.001 218.901 218.101 219.601H219.601V218.101C218.901 158.001 169.901 109.601 109.801 109.801Z" fill="#FF73A9"/>
<path d="M219.601 218.101V219.601H221.101C281.201 219.001 329.601 169.901 329.401 109.801C329.201 169.901 377.601 218.901 437.701 219.601H439.201V218.101C438.601 158.001 389.601 109.601 329.401 109.801C269.301 109.601 220.301 158.001 219.601 218.101Z" fill="#FF73A9"/>
<path d="M327.901 109.801H329.401V108.301C328.801 48.1006 279.701 -0.199381 219.601 0.000618878C219.401 60.1006 267.801 109.101 327.901 109.801Z" fill="#FF73A9"/>
<path d="M109.801 329.401H111.301C171.401 328.801 219.801 279.701 219.601 219.601C159.501 219.401 110.401 267.801 109.801 327.901C109.101 267.801 60.1006 219.401 0.000617606 219.601C-0.199382 279.701 48.2006 328.801 108.301 329.401H109.801C109.601 389.601 158.001 438.601 218.101 439.201H219.601V437.701C218.901 377.601 169.901 329.201 109.801 329.401Z" fill="#FF73A9"/>
<path d="M329.401 327.901C328.801 267.801 279.701 219.401 219.601 219.601C219.401 279.701 267.801 328.801 327.901 329.401H329.401C269.301 329.201 220.301 377.601 219.601 437.701V439.201H221.101C281.201 438.601 329.601 389.601 329.401 329.401H330.901C391.001 328.801 439.401 279.701 439.201 219.601C379.101 219.401 330.101 267.801 329.401 327.901Z" fill="#FF73A9"/>
</svg>
