<svg width="896" height="975" viewBox="0 0 896 975" fill="none" xmlns="http://www.w3.org/2000/svg">
<path d="M883.073 252.567C883.073 252.319 883.073 252.319 883.073 252.071C856.614 152.656 796.667 63.653 713.981 0.929693C712.327 -0.309898 710.053 -0.309898 708.4 0.929693C706.746 2.16928 705.712 4.64846 706.126 7.12765C710.053 39.357 706.126 72.578 702.198 104.559C701.578 106.047 700.958 108.526 699.924 112.245C697.03 122.41 693.93 132.326 690.416 141.995C659.408 87.4531 617.239 39.357 566.594 0.929693C564.94 -0.309898 562.666 -0.309898 561.012 0.929693C559.359 2.16928 558.325 4.64846 558.738 7.12765C562.666 39.357 558.739 72.578 554.811 104.559C554.191 106.047 553.571 108.526 552.537 112.245C549.643 122.41 546.542 132.326 543.028 141.995C512.021 87.4531 469.851 39.357 419.206 0.929693C417.553 -0.309898 415.279 -0.309898 413.625 0.929693C411.971 2.16928 410.938 4.64846 411.351 7.12765C415.279 39.357 411.351 72.578 407.424 104.559C406.803 106.047 406.183 108.526 405.15 112.245C402.256 122.41 399.155 132.326 395.641 141.995C364.634 87.4531 322.464 39.357 271.819 0.929693C270.165 -0.309898 267.891 -0.309898 266.238 0.929693C264.584 2.16928 263.55 4.64846 263.964 7.12765C267.891 39.357 263.964 72.578 260.036 104.559C259.416 106.047 258.796 108.526 257.762 112.245C234.404 193.562 198.435 255.542 150.891 296.696C94.6648 345.288 51.2548 407.763 25.6223 477.924C-1.87075 552.795 -7.45204 632.625 9.91196 708.488C35.958 815.589 94.0447 904.839 182.932 974.008C183.759 974.752 184.792 975 185.826 975C186.653 975 187.686 974.752 188.513 974.008C190.167 972.769 191.2 970.537 190.994 968.058C187.066 915.995 191.407 871.618 204.637 829.472C235.437 884.51 277.4 932.854 330.319 974.008C331.146 974.752 332.18 975 333.213 975C334.04 975 335.074 974.752 335.9 974.008C337.554 972.769 338.588 970.537 338.381 968.058C334.453 915.995 338.794 871.618 352.024 829.472C382.825 884.51 424.788 932.854 477.706 974.008C478.533 974.752 479.567 975 480.601 975C481.427 975 482.461 974.752 483.288 974.008C484.941 972.769 485.975 970.537 485.768 968.058C481.841 915.995 486.182 871.618 499.411 829.472C530.212 884.51 572.175 932.854 625.094 974.008C625.921 974.752 626.954 975 627.988 975C628.815 975 629.848 974.752 630.675 974.008C632.329 972.769 633.362 970.537 633.156 968.058C629.021 913.516 633.983 867.651 648.659 823.522C660.235 795.507 676.152 767.245 695.583 739.23C715.221 713.446 737.34 690.39 758.631 668.325C780.336 646.013 802.661 622.708 822.713 596.181C843.591 566.927 858.268 531.475 872.324 497.014C874.598 491.56 876.872 486.105 879.146 480.651C879.146 480.403 879.352 480.403 879.352 480.155C900.231 416.193 901.471 341.817 883.073 252.567ZM562.253 116.46C563.286 113.237 564.113 110.014 564.526 109.27C564.733 108.774 564.94 108.03 564.94 107.287C568.454 78.2801 571.968 48.53 570.108 18.5319C617.445 56.2154 656.721 103.072 685.454 155.383C663.129 214.139 633.156 260.5 595.74 293.969C593.88 280.581 591.399 266.698 588.505 252.567C588.505 252.319 588.505 252.319 588.505 252.071C579.41 218.106 566.594 185.133 550.056 154.143C554.397 142.243 558.532 129.599 562.253 116.46ZM329.906 482.883C353.264 419.416 391.507 362.146 441.118 316.282C447.733 376.526 443.392 428.341 427.682 475.445C425.408 480.651 423.341 486.105 421.067 491.56C407.217 525.277 392.954 560.233 373.109 588C353.471 614.031 331.353 636.84 310.061 658.904C309.234 659.648 308.407 660.64 307.581 661.384C300.966 602.131 308.407 540.895 329.906 482.883ZM298.072 671.3C280.294 689.894 262.31 709.48 245.773 731.049C245.773 731.049 245.773 731.296 245.566 731.296C228.822 755.344 214.766 779.888 203.603 804.184C188.1 773.195 175.904 739.974 167.428 705.017C150.891 631.881 156.059 555.027 182.725 482.635C207.738 414.705 249.907 353.717 304.48 306.613C343.135 273.392 374.349 226.783 397.708 167.779C411.971 195.793 423.341 225.296 431.402 255.542C434.71 271.656 437.397 287.027 439.464 302.15C386.339 349.751 345.203 410.243 320.397 477.676C297.245 540.647 289.803 606.842 298.072 671.3ZM316.469 668.573C337.968 646.261 360.499 622.956 380.551 596.429C401.429 567.175 416.106 531.722 430.162 497.262C432.436 491.808 434.71 486.353 436.984 480.899C436.984 480.651 437.19 480.651 437.19 480.403C453.934 430.076 458.482 373.303 450.42 307.852C450.834 307.604 451.247 307.109 451.66 306.861C490.316 273.64 521.53 227.031 544.889 168.026C559.152 196.041 570.521 225.544 578.583 255.79C581.891 271.904 584.578 287.275 586.645 302.398C533.519 349.998 492.383 410.49 467.577 477.924C444.425 540.647 436.984 606.842 445.252 671.3C427.475 689.894 409.491 709.48 392.954 731.049C392.954 731.049 392.954 731.296 392.747 731.296C376.003 755.344 361.946 779.888 350.784 804.184C335.28 773.195 323.084 739.974 314.609 705.017C312.335 695.348 310.681 685.68 309.234 676.011C311.715 673.532 314.195 671.052 316.469 668.573ZM477.086 482.883C500.445 419.416 538.687 362.146 588.299 316.282C594.913 376.526 590.572 428.341 574.862 475.445C572.588 480.651 570.521 486.105 568.247 491.56C554.398 525.277 540.134 560.233 520.29 588C500.652 614.031 478.533 636.84 457.242 658.904C456.415 659.648 455.588 660.64 454.761 661.384C448.146 602.131 455.795 540.895 477.086 482.883ZM463.65 668.573C485.148 646.261 507.68 622.956 527.731 596.429C548.609 567.175 563.286 531.722 577.343 497.262C579.617 491.808 581.89 486.353 584.164 480.899C584.164 480.651 584.371 480.651 584.371 480.403C601.115 430.076 605.663 373.303 597.601 307.852C598.014 307.604 598.428 307.109 598.841 306.861C637.497 273.64 668.711 227.031 692.069 168.026C706.333 196.041 717.702 225.544 725.764 255.79C743.955 343.305 742.714 413.218 722.043 475.445C719.769 480.651 717.702 486.105 715.428 491.56C701.578 525.277 687.315 560.233 667.47 588C647.832 614.031 625.714 636.84 604.422 658.904C582.924 681.217 560.392 704.521 540.341 730.801C540.341 730.801 540.341 731.049 540.134 731.049C523.39 755.097 509.334 779.641 498.171 803.936C482.668 772.947 470.472 739.726 461.996 704.769C459.722 695.1 458.069 685.432 456.622 675.763C458.895 673.532 461.376 671.052 463.65 668.573ZM415.072 116.46C416.106 113.237 416.932 110.014 417.346 109.27C417.553 108.774 417.759 108.03 417.759 107.287C421.273 78.2801 424.788 48.53 422.927 18.5319C470.265 56.2154 509.541 103.072 538.274 155.383C515.949 214.139 485.975 260.5 448.56 293.969C446.699 280.581 444.219 266.698 441.325 252.567C441.325 252.319 441.325 252.319 441.325 252.071C432.229 218.106 419.413 185.133 402.876 154.143C407.217 142.243 411.351 129.599 415.072 116.46ZM197.195 818.316C197.195 818.564 196.988 818.564 196.988 818.812C182.725 861.454 177.351 905.583 180.038 956.654C98.3857 890.212 44.64 805.424 20.2477 705.017C3.71054 631.881 8.8784 555.027 35.5445 482.635C60.557 414.705 102.727 353.717 157.299 306.613C206.704 263.971 243.913 200.008 267.891 116.212C268.925 112.989 269.752 109.766 270.165 109.022C270.372 108.526 270.579 107.782 270.579 107.039C274.093 78.0322 277.607 48.2821 275.747 18.284C323.084 55.9675 362.36 102.824 391.093 155.135C368.355 215.379 337.141 262.979 298.485 296.2C242.259 344.792 198.849 407.268 173.216 477.428C145.723 552.3 140.142 632.129 157.506 707.992C166.808 746.419 180.451 782.616 198.022 816.332C197.815 817.324 197.402 817.82 197.195 818.316ZM344.582 818.316C344.582 818.564 344.376 818.564 344.376 818.812C330.112 861.454 324.738 905.583 327.425 956.654C277.814 916.243 238.745 869.387 210.011 816.332C221.381 790.797 235.851 765.013 253.628 739.478C268.305 720.14 284.222 702.538 300.346 685.68C301.586 693.365 303.033 701.05 304.893 708.488C314.195 746.915 327.839 783.111 345.409 816.828C344.996 817.324 344.789 817.82 344.582 818.316ZM491.763 818.316C491.763 818.564 491.556 818.564 491.556 818.812C477.293 861.454 471.918 905.583 474.606 956.654C424.994 916.243 385.925 869.387 357.192 816.332C368.561 790.797 383.031 765.013 400.809 739.478C415.485 720.14 431.402 702.538 447.526 685.68C448.766 693.365 450.213 701.05 452.074 708.488C461.376 746.915 475.019 783.111 492.59 816.828C492.176 817.324 491.97 817.82 491.763 818.316ZM869.223 475.445C866.95 480.899 864.676 486.105 862.609 491.56C848.759 525.277 834.495 560.233 814.651 588C795.013 614.031 772.895 636.84 751.603 658.904C730.105 681.217 707.573 704.521 687.521 730.801C687.521 730.801 687.522 731.049 687.315 731.049C667.264 759.807 650.933 789.061 638.944 818.068C638.944 818.316 638.737 818.316 638.737 818.564C624.474 861.206 619.099 905.335 621.786 956.406C572.175 915.995 533.106 869.139 504.373 816.084C515.742 790.549 530.212 764.765 547.989 739.23C567.627 713.446 589.746 690.39 611.037 668.325C632.535 646.013 655.067 622.708 675.119 596.181C695.997 566.927 710.673 531.475 724.73 497.014C727.004 491.56 729.278 486.105 731.552 480.651C731.552 480.403 731.758 480.403 731.758 480.155C753.05 415.945 754.497 341.569 735.893 252.319C735.893 252.071 735.893 252.071 735.893 251.823C726.797 217.858 713.981 184.885 697.444 153.895C701.785 141.747 706.126 129.103 709.847 115.964C710.88 112.741 711.707 109.518 712.121 108.774C712.327 108.278 712.534 107.534 712.534 106.791C716.048 77.7843 719.562 48.0341 717.702 18.036C793.566 78.5281 848.552 162.324 873.358 255.294C891.135 343.305 890.102 413.218 869.223 475.445Z" fill="#FFE066"/>
</svg>
