<svg width="957" height="992" viewBox="0 0 957 992" fill="none" xmlns="http://www.w3.org/2000/svg">
<rect width="957" height="992" fill="#FFF9E4" fill-opacity="0.05"/>
<path d="M393.787 0C176.357 0 0 182.758 0 408.079V992H563.213C780.643 992 957 809.242 957 583.921V0H393.787ZM561.159 644.84C726.735 941.988 230.009 941.988 395.584 644.84C230.265 941.988 -18.2261 496.133 312.925 496.133C-18.2261 496.133 230.265 50.2784 395.584 347.426C230.009 50.2784 726.735 50.2784 561.159 347.426C726.735 50.5444 975.226 496.133 644.075 496.133C975.226 496.133 726.735 941.988 561.159 644.84Z" fill="#FFE066"/>
</svg>
