<svg width="377" height="636" viewBox="0 0 377 636" fill="none" xmlns="http://www.w3.org/2000/svg">
<path d="M358.935 448.256L333.904 427.669L356.416 409.153C380.345 389.472 380.345 357.362 356.416 337.551L331.385 316.964L353.898 298.449C377.827 278.768 377.827 246.657 353.898 226.847L328.867 206.26L351.379 187.744C375.308 168.064 375.308 135.953 351.379 116.143L228.113 14.7606C216.463 5.30863 201.035 0 184.663 0C168.29 0 152.705 5.30863 141.213 14.7606L17.9468 116.143C-5.98225 135.823 -5.98225 167.934 17.9468 187.744L42.9778 208.331L20.4656 226.847C-3.4634 246.528 -3.4634 278.638 20.4656 298.449L45.4966 319.036L22.9844 337.551C-0.944571 357.232 -0.944571 389.343 22.9844 409.153L48.0155 429.74L25.5033 448.256C1.57428 467.936 1.57428 500.047 25.5033 519.857L148.769 621.239C160.734 631.08 176.476 636 192.219 636C207.962 636 223.705 631.08 235.669 621.239L358.935 519.857C383.022 500.047 383.022 467.936 358.935 448.256ZM350.906 342.083C371.844 359.304 371.844 387.271 350.906 404.492L328.394 423.007L265.423 371.216L325.875 321.496L350.906 342.083ZM151.76 240.831C162.151 232.285 176.004 227.883 189.7 227.883C203.397 227.883 217.25 232.156 227.64 240.831L251.727 260.641L222.603 284.594C212.527 292.881 198.989 297.542 184.663 297.542C170.337 297.542 156.798 293.011 146.723 284.594L122.636 264.784L151.76 240.831ZM117.126 260.252L54.1551 208.461L149.241 130.256C159.317 121.969 172.856 117.308 187.182 117.308C201.507 117.308 215.046 121.84 225.122 130.256L317.689 206.389L257.237 256.109L233.15 236.299C209.221 216.618 170.179 216.618 146.093 236.299L117.126 260.252ZM141.055 289.126C152.705 298.708 168.133 303.887 184.505 303.887C200.878 303.887 216.463 298.578 227.955 289.126L257.079 265.173L320.051 316.964L259.598 366.684L235.512 346.874C211.583 327.193 172.541 327.193 148.454 346.874L119.33 370.827L56.3591 319.036L116.811 269.316L141.055 289.126ZM154.279 351.406C164.669 342.86 178.523 338.458 192.219 338.458C205.915 338.458 219.769 342.73 230.159 351.406L254.246 371.216L225.122 395.169C215.046 403.456 201.507 408.117 187.182 408.117C172.856 408.117 159.317 403.586 149.241 395.169L125.155 375.359L154.279 351.406ZM143.732 399.831C155.381 409.412 170.809 414.591 187.182 414.591C203.554 414.591 219.139 409.283 230.632 399.831L259.756 375.877L322.727 427.669L227.64 505.874C206.703 523.094 172.698 523.094 151.76 505.874L59.1928 429.74L119.645 380.02L143.732 399.831ZM348.388 231.508C369.325 248.729 369.325 276.696 348.388 293.917L325.875 312.432L262.904 260.641L323.357 210.921L348.388 231.508ZM23.4567 183.213C2.51884 165.992 2.51884 138.024 23.4567 120.804L146.723 19.4218C156.798 11.1352 170.337 6.47394 184.663 6.47394C198.989 6.47394 212.527 11.0057 222.603 19.4218L345.869 120.804C366.807 138.024 366.807 165.992 345.869 183.213L323.357 201.728L230.789 125.594C206.86 105.914 167.818 105.914 143.732 125.594L48.6452 203.8L23.4567 183.213ZM25.9756 293.917C5.0377 276.696 5.0377 248.729 25.9756 231.508L48.4878 212.993L111.459 264.784L51.0066 314.504L25.9756 293.917ZM28.4944 404.492C7.55652 387.271 7.55652 359.304 28.4944 342.083L51.0066 323.568L113.978 375.359L53.5254 425.079L28.4944 404.492ZM353.425 515.196L230.159 616.578C209.221 633.799 175.217 633.799 154.279 616.578L31.0133 515.196C20.9379 506.91 15.2705 495.774 15.2705 483.992C15.2705 472.209 20.7805 461.074 31.0133 452.787L53.5254 434.272L146.093 510.406C158.057 520.246 173.8 525.166 189.543 525.166C205.286 525.166 221.028 520.246 232.993 510.406L328.079 432.2L353.11 452.787C363.186 461.074 368.853 472.209 368.853 483.992C369.168 495.774 363.501 506.91 353.425 515.196Z" fill="white"/>
</svg>
