<svg xmlns="http://www.w3.org/2000/svg" xmlns:xlink="http://www.w3.org/1999/xlink" width="940" zoomAndPan="magnify" viewBox="0 0 705 591.000005" height="788" preserveAspectRatio="xMidYMid meet" version="1.0"><defs><g/><clipPath id="1b9f1a11ef"><path d="M 176.585938 178 L 214 178 L 214 412.320312 L 176.585938 412.320312 Z M 176.585938 178 " clip-rule="nonzero"/></clipPath><clipPath id="2ccffc9111"><rect x="0" width="311" y="0" height="218"/></clipPath><clipPath id="4a883c0fb5"><path d="M 499.410156 185.777344 L 533.851562 185.777344 L 533.851562 404.40625 L 499.410156 404.40625 Z M 499.410156 185.777344 " clip-rule="nonzero"/></clipPath><clipPath id="f8b3e24b22"><path d="M 1 1 L 34.851562 1 L 34.851562 219.40625 L 1 219.40625 Z M 1 1 " clip-rule="nonzero"/></clipPath><clipPath id="5418f1a5c2"><rect x="0" width="35" y="0" height="220"/></clipPath></defs><g clip-path="url(#1b9f1a11ef)"><path fill="#000000" d="M 210.003906 412.03125 C 208.398438 412.03125 206.929688 410.960938 206.503906 409.34375 C 196.589844 371.78125 186.710938 334.179688 177.160156 297.816406 L 176.75 296.246094 C 176.59375 295.652344 176.59375 295.027344 176.75 294.429688 L 177.089844 293.128906 C 186.667969 256.675781 196.566406 218.984375 206.503906 181.335938 C 207.011719 179.410156 208.988281 178.257812 210.925781 178.765625 C 212.859375 179.269531 214.019531 181.238281 213.511719 183.160156 C 203.574219 220.808594 193.675781 258.496094 184.101562 294.945312 L 183.996094 295.339844 L 184.171875 295.996094 C 193.722656 332.359375 203.597656 369.957031 213.511719 407.515625 C 214.019531 409.441406 212.859375 411.40625 210.925781 411.914062 C 210.617188 411.992188 210.308594 412.03125 210.003906 412.03125 " fill-opacity="1" fill-rule="nonzero"/></g><g transform="matrix(1, 0, 0, 1, 199, 186)"><g clip-path="url(#2ccffc9111)"><g fill="#3e3e3e" fill-opacity="1"><g transform="translate(5.384978, 109.000858)"><g><path d="M 32.296875 -46.734375 L 56 -46.734375 L 56 0.8125 L 48.203125 0.8125 L 48.203125 -5.03125 C 43.441406 -0.59375 38.191406 1.625 32.453125 1.625 C 27.148438 1.625 22.304688 -0.210938 17.921875 -3.890625 C 13.546875 -7.566406 10.0625 -12.460938 7.46875 -18.578125 C 4.875 -24.691406 3.578125 -31.484375 3.578125 -38.953125 C 3.578125 -46.421875 4.875 -53.207031 7.46875 -59.3125 C 10.0625 -65.425781 13.546875 -70.320312 17.921875 -74 C 22.304688 -77.6875 27.148438 -79.53125 32.453125 -79.53125 C 37.328125 -79.53125 41.816406 -77.988281 45.921875 -74.90625 C 50.035156 -71.820312 53.394531 -67.679688 56 -62.484375 L 50.15625 -56.640625 C 48.3125 -61.078125 45.820312 -64.703125 42.6875 -67.515625 C 39.550781 -70.328125 36.140625 -71.734375 32.453125 -71.734375 C 28.671875 -71.734375 25.179688 -70.21875 21.984375 -67.1875 C 18.796875 -64.15625 16.226562 -60.175781 14.28125 -55.25 C 12.332031 -50.332031 11.359375 -44.898438 11.359375 -38.953125 C 11.359375 -33.003906 12.332031 -27.566406 14.28125 -22.640625 C 16.226562 -17.710938 18.796875 -13.734375 21.984375 -10.703125 C 25.179688 -7.679688 28.671875 -6.171875 32.453125 -6.171875 C 35.597656 -6.171875 38.519531 -7.195312 41.21875 -9.25 C 43.925781 -11.300781 46.253906 -14.003906 48.203125 -17.359375 L 48.203125 -38.953125 L 32.296875 -38.953125 Z M 32.296875 -46.734375 "/></g></g></g><g fill="#3e3e3e" fill-opacity="1"><g transform="translate(67.040122, 109.000858)"><g><path d="M 45.4375 -70.109375 L 14.28125 -70.109375 L 14.28125 -46.734375 L 37.65625 -46.734375 L 37.65625 -38.953125 L 14.28125 -38.953125 L 14.28125 -7.796875 L 45.4375 -7.796875 L 45.4375 0 L 6.484375 0 L 6.484375 -77.90625 L 45.4375 -77.90625 Z M 45.4375 -70.109375 "/></g></g></g><g fill="#3e3e3e" fill-opacity="1"><g transform="translate(114.741738, 109.000858)"><g><path d="M 14.28125 -77.90625 L 14.28125 0 L 6.484375 0 L 6.484375 -77.90625 Z M 22.5625 -77.90625 L 48.84375 0 L 40.578125 0 L 14.28125 -77.90625 Z M 56.640625 -77.90625 L 56.640625 0 L 48.84375 0 L 48.84375 -77.90625 Z M 56.640625 -77.90625 "/></g></g></g><g fill="#3e3e3e" fill-opacity="1"><g transform="translate(177.857121, 109.000858)"><g><path d="M 0 -77.90625 L 40.578125 -77.90625 L 40.578125 -70.109375 L 24.1875 -70.109375 L 24.1875 0 L 16.390625 0 L 16.390625 -70.109375 L 0 -70.109375 Z M 0 -77.90625 "/></g></g></g><g fill="#3e3e3e" fill-opacity="1"><g transform="translate(218.419737, 109.000858)"><g><path d="M 14.28125 -7.796875 L 42.359375 -7.796875 L 42.359375 0 L 6.484375 0 L 6.484375 -77.90625 L 14.28125 -77.90625 Z M 14.28125 -7.796875 "/></g></g></g><g fill="#3e3e3e" fill-opacity="1"><g transform="translate(260.767066, 109.000858)"><g><path d="M 45.4375 -70.109375 L 14.28125 -70.109375 L 14.28125 -46.734375 L 37.65625 -46.734375 L 37.65625 -38.953125 L 14.28125 -38.953125 L 14.28125 -7.796875 L 45.4375 -7.796875 L 45.4375 0 L 6.484375 0 L 6.484375 -77.90625 L 45.4375 -77.90625 Z M 45.4375 -70.109375 "/></g></g></g><g fill="#3e3e3e" fill-opacity="1"><g transform="translate(34.347301, 197.501111)"><g><path d="M 14.28125 -77.90625 L 14.28125 0 L 6.484375 0 L 6.484375 -77.90625 Z M 22.5625 -77.90625 L 48.84375 0 L 40.578125 0 L 14.28125 -77.90625 Z M 56.640625 -77.90625 L 56.640625 0 L 48.84375 0 L 48.84375 -77.90625 Z M 56.640625 -77.90625 "/></g></g></g><g fill="#3e3e3e" fill-opacity="1"><g transform="translate(97.462684, 197.501111)"><g><path d="M 53.71875 -38.953125 C 53.71875 -44.898438 52.742188 -50.332031 50.796875 -55.25 C 48.847656 -60.175781 46.273438 -64.15625 43.078125 -67.1875 C 39.890625 -70.21875 36.347656 -71.734375 32.453125 -71.734375 C 28.671875 -71.734375 25.179688 -70.21875 21.984375 -67.1875 C 18.796875 -64.15625 16.226562 -60.175781 14.28125 -55.25 C 12.332031 -50.332031 11.359375 -44.898438 11.359375 -38.953125 C 11.359375 -33.003906 12.332031 -27.566406 14.28125 -22.640625 C 16.226562 -17.710938 18.796875 -13.734375 21.984375 -10.703125 C 25.179688 -7.679688 28.671875 -6.171875 32.453125 -6.171875 C 36.347656 -6.171875 39.890625 -7.679688 43.078125 -10.703125 C 46.273438 -13.734375 48.847656 -17.710938 50.796875 -22.640625 C 52.742188 -27.566406 53.71875 -33.003906 53.71875 -38.953125 Z M 3.578125 -38.953125 C 3.578125 -46.421875 4.875 -53.207031 7.46875 -59.3125 C 10.0625 -65.425781 13.546875 -70.320312 17.921875 -74 C 22.304688 -77.6875 27.148438 -79.53125 32.453125 -79.53125 C 37.867188 -79.53125 42.738281 -77.6875 47.0625 -74 C 51.394531 -70.320312 54.882812 -65.425781 57.53125 -59.3125 C 60.1875 -53.207031 61.515625 -46.421875 61.515625 -38.953125 C 61.515625 -31.484375 60.1875 -24.691406 57.53125 -18.578125 C 54.882812 -12.460938 51.394531 -7.566406 47.0625 -3.890625 C 42.738281 -0.210938 37.867188 1.625 32.453125 1.625 C 27.148438 1.625 22.304688 -0.210938 17.921875 -3.890625 C 13.546875 -7.566406 10.0625 -12.460938 7.46875 -18.578125 C 4.875 -24.691406 3.578125 -31.484375 3.578125 -38.953125 Z M 3.578125 -38.953125 "/></g></g></g><g fill="#3e3e3e" fill-opacity="1"><g transform="translate(162.525129, 197.501111)"><g><path d="M 53.71875 -38.953125 C 53.71875 -44.898438 52.742188 -50.332031 50.796875 -55.25 C 48.847656 -60.175781 46.273438 -64.15625 43.078125 -67.1875 C 39.890625 -70.21875 36.347656 -71.734375 32.453125 -71.734375 C 28.671875 -71.734375 25.179688 -70.21875 21.984375 -67.1875 C 18.796875 -64.15625 16.226562 -60.175781 14.28125 -55.25 C 12.332031 -50.332031 11.359375 -44.898438 11.359375 -38.953125 C 11.359375 -33.003906 12.332031 -27.566406 14.28125 -22.640625 C 16.226562 -17.710938 18.796875 -13.734375 21.984375 -10.703125 C 25.179688 -7.679688 28.671875 -6.171875 32.453125 -6.171875 C 36.347656 -6.171875 39.890625 -7.679688 43.078125 -10.703125 C 46.273438 -13.734375 48.847656 -17.710938 50.796875 -22.640625 C 52.742188 -27.566406 53.71875 -33.003906 53.71875 -38.953125 Z M 3.578125 -38.953125 C 3.578125 -46.421875 4.875 -53.207031 7.46875 -59.3125 C 10.0625 -65.425781 13.546875 -70.320312 17.921875 -74 C 22.304688 -77.6875 27.148438 -79.53125 32.453125 -79.53125 C 37.867188 -79.53125 42.738281 -77.6875 47.0625 -74 C 51.394531 -70.320312 54.882812 -65.425781 57.53125 -59.3125 C 60.1875 -53.207031 61.515625 -46.421875 61.515625 -38.953125 C 61.515625 -31.484375 60.1875 -24.691406 57.53125 -18.578125 C 54.882812 -12.460938 51.394531 -7.566406 47.0625 -3.890625 C 42.738281 -0.210938 37.867188 1.625 32.453125 1.625 C 27.148438 1.625 22.304688 -0.210938 17.921875 -3.890625 C 13.546875 -7.566406 10.0625 -12.460938 7.46875 -18.578125 C 4.875 -24.691406 3.578125 -31.484375 3.578125 -38.953125 Z M 3.578125 -38.953125 "/></g></g></g><g fill="#3e3e3e" fill-opacity="1"><g transform="translate(227.587573, 197.501111)"><g><path d="M 14.28125 -77.90625 L 14.28125 0 L 6.484375 0 L 6.484375 -77.90625 Z M 51.125 -77.90625 L 23.859375 -38.953125 L 51.125 0 L 41.546875 0 L 14.4375 -38.78125 L 14.28125 -38.953125 L 14.4375 -39.109375 L 41.546875 -77.90625 Z M 51.125 -77.90625 "/></g></g></g></g></g><g clip-path="url(#4a883c0fb5)"><g transform="matrix(1, 0, 0, 1, 499, 185)"><g clip-path="url(#5418f1a5c2)"><g clip-path="url(#f8b3e24b22)"><path fill="#000000" d="M 4.34375 219.132812 C 5.820312 219.132812 7.171875 218.136719 7.5625 216.625 C 16.683594 181.585938 25.769531 146.507812 34.558594 112.585938 L 34.9375 111.121094 C 35.082031 110.566406 35.082031 109.980469 34.9375 109.425781 L 34.621094 108.210938 C 25.8125 74.207031 16.707031 39.046875 7.5625 3.921875 C 7.097656 2.125 5.277344 1.050781 3.496094 1.523438 C 1.714844 1.996094 0.648438 3.832031 1.117188 5.625 C 10.257812 40.746094 19.363281 75.90625 28.171875 109.90625 L 28.269531 110.273438 L 28.109375 110.886719 C 19.320312 144.808594 10.234375 179.886719 1.117188 214.921875 C 0.648438 216.714844 1.714844 218.550781 3.496094 219.023438 C 3.777344 219.097656 4.0625 219.132812 4.34375 219.132812 " fill-opacity="1" fill-rule="nonzero"/></g></g></g></g></svg>