<svg width="658" height="696" viewBox="0 0 658 696" fill="none" xmlns="http://www.w3.org/2000/svg">
<path d="M327.063 0.414944L2.35782 148.225C1.01049 148.82 0 150.16 0 151.5C0 152.839 0.842075 154.179 2.35782 154.774L139.111 216.995L2.35782 279.215C1.01049 279.81 0 281.15 0 282.489C0 283.829 0.842075 285.169 2.35782 285.764L139.111 347.984L2.35782 410.204C1.01049 410.8 0 412.139 0 413.479C0 414.819 0.842075 416.158 2.35782 416.754L139.111 478.974L2.35782 541.194C1.01049 541.789 0 543.129 0 544.469C0 545.808 0.842075 547.148 2.35782 547.743L327.063 695.553C328.242 696.149 329.758 696.149 330.937 695.553L655.642 547.892C656.99 547.297 658 545.957 658 544.618C658 543.278 657.158 541.938 655.642 541.343L518.889 479.123L655.642 416.903C656.99 416.307 658 414.968 658 413.628C658 412.288 657.158 410.949 655.642 410.353L518.889 348.133L655.642 285.913C656.99 285.318 658 283.978 658 282.638C658 281.299 657.158 279.959 655.642 279.363L518.889 217.143L655.642 154.923C656.99 154.328 658 152.988 658 151.649C658 150.309 657.158 148.969 655.642 148.374L330.937 0.712666C329.589 -0.180445 328.242 -0.180464 327.063 0.414944ZM13.4733 282.489L148.206 221.162L282.938 282.489L148.206 343.816L13.4733 282.489ZM330.768 433.574L365.63 417.796L500.363 479.123L328.916 556.972L157.469 478.974L292.201 417.647L327.063 433.425C328.242 434.021 329.589 434.021 330.768 433.574ZM328.916 425.983L301.296 413.479L328.916 400.975L356.536 413.479L328.916 425.983ZM330.768 393.533C329.589 392.937 328.074 392.937 326.895 393.533L292.033 409.311L157.3 347.984L292.033 286.657L326.895 302.436C328.074 303.031 329.589 303.031 330.768 302.436L365.63 286.657L500.363 347.984L365.63 409.311L330.768 393.533ZM328.916 294.993L301.296 282.489L328.916 269.986L356.536 282.489L328.916 294.993ZM330.768 262.394C329.589 261.799 328.074 261.799 326.895 262.394L292.033 278.173L157.3 216.846L328.916 138.996L500.363 216.995L365.63 278.322L330.768 262.394ZM13.4733 413.479L148.206 352.152L282.938 413.479L148.206 474.806L13.4733 413.479ZM644.358 544.469L328.916 687.962L13.4733 544.469L148.206 483.142L326.895 564.415C328.074 565.01 329.589 565.01 330.768 564.415L509.457 483.142L644.358 544.469ZM644.358 413.479L509.626 474.806L374.893 413.479L509.626 352.152L644.358 413.479ZM644.358 282.489L509.626 343.816L374.893 282.489L509.626 221.162L644.358 282.489ZM644.358 151.5L509.626 212.827L330.937 131.554C329.758 130.958 328.242 130.958 327.063 131.554L148.374 212.827L13.6417 151.5L328.916 8.0064L644.358 151.5Z" fill="white"/>
</svg>
