<svg width="66" height="66" viewBox="0 0 66 66" fill="none" xmlns="http://www.w3.org/2000/svg">
<g clip-path="url(#clip0_2001_1695)">
<path fill-rule="evenodd" clip-rule="evenodd" d="M32.8599 1.09534L37.2412 11.1359L45.091 3.65111L45.2736 14.4218L55.4966 10.4056L51.4804 20.6287L62.2512 20.8113L54.7664 28.6611L64.8069 33.0424L54.7664 37.2412L62.2512 45.091L51.4804 45.2736L55.4966 55.4967L45.2736 51.4804L45.091 62.2512L37.2412 54.7664L32.8599 64.8069L28.6611 54.7664L20.8112 62.2512L20.6287 51.4804L10.4056 55.4967L14.4218 45.2736L3.6511 45.091L11.1358 37.2412L1.09534 33.0424L11.1358 28.6611L3.6511 20.8113L14.4218 20.6287L10.4056 10.4056L20.6287 14.4218L20.8112 3.65111L28.6611 11.1359L32.8599 1.09534Z" stroke="#59C9DF" stroke-width="1.82555" stroke-miterlimit="10"/>
</g>
<defs>
<clipPath id="clip0_2001_1695">
<rect width="65.9023" height="65.9023" fill="white"/>
</clipPath>
</defs>
</svg>
