<svg width="66" height="66" viewBox="0 0 66 66" fill="none" xmlns="http://www.w3.org/2000/svg">
<g clip-path="url(#clip0_2001_1676)">
<path d="M40.8924 16.9775C40.1622 16.4299 39.2494 15.8822 38.3367 15.152C34.3205 11.6834 31.9472 0.365053 31.5821 0.365053C30.6694 0.182498 30.8519 1.09527 30.6694 1.64294C30.1217 3.83359 29.3915 5.84169 28.1136 7.48469C25.7404 10.7707 23.0021 13.6915 18.9859 14.9694C18.6207 15.152 18.0731 15.5171 18.0731 15.8822C18.0731 16.2473 18.4382 16.795 18.8033 16.9775C19.5335 17.5252 20.2637 17.8903 20.994 18.2554C22.637 19.1682 24.2799 20.081 25.1927 21.9065C26.6532 24.4623 27.7485 27.018 28.2961 29.9389C28.4787 31.2168 28.6613 32.4947 29.0264 33.7726C29.0264 34.1377 29.574 34.3202 29.9391 34.6853C30.1217 34.3202 30.4868 34.1377 30.4868 33.7726C31.217 29.9389 32.6775 26.4704 35.4158 23.5495C36.8762 22.0891 38.8843 20.8112 40.7099 19.7159C42.1703 18.8031 42.1703 18.0729 40.8924 16.9775ZM57.1398 37.4237C56.9572 37.2411 56.7747 37.2411 56.5921 37.0585C53.3061 34.5028 50.9329 31.5819 50.2027 27.5657C50.2027 27.2006 49.8376 27.018 49.4725 26.8355C49.2899 27.2006 48.9248 27.3831 48.9248 27.7483C48.7423 28.8436 48.5597 29.9389 48.1946 30.8517C47.2818 33.2249 45.6388 34.5028 43.2656 35.233C42.718 35.4156 42.3529 36.1458 41.8052 36.5109C42.1703 36.876 42.5354 37.4237 43.0831 37.6062C46.1865 39.0667 48.3772 41.4399 49.1074 44.9084C49.2899 45.6386 49.1074 46.5514 49.2899 47.4642C49.4725 48.0118 49.8376 48.3769 50.0202 48.7421H50.3853C50.5678 48.3769 50.9329 48.1944 50.9329 47.8293C51.4806 46.0037 52.0283 44.3607 52.5759 42.5352C53.1236 40.8922 54.2189 39.9794 55.8619 39.7969C56.0445 39.7969 56.4096 39.7969 56.5921 39.6143C56.9572 39.4318 57.5049 39.0667 57.6875 38.7015C57.87 38.3364 57.5049 37.7888 57.1398 37.4237ZM33.4077 48.5595C32.86 47.2816 32.86 45.6386 32.4949 44.3607C32.4949 43.9956 32.1298 43.8131 31.7647 43.448C31.5821 43.8131 31.0345 43.9956 31.0345 44.3607C30.8519 48.3769 28.8438 51.1153 25.1927 52.9408C24.8276 53.1234 24.6451 53.4885 24.4625 53.671C24.8276 53.8536 25.0102 54.2187 25.3753 54.4012C26.4706 54.9489 27.5659 55.314 28.4787 56.0442C30.3043 57.5047 30.6694 59.6953 31.0345 61.886C31.217 62.7988 31.217 63.8941 31.3996 64.8069C31.3996 64.9894 31.7647 65.3545 32.1298 65.3545C32.3124 65.3545 32.6775 64.9894 32.86 64.8069C33.0426 64.6243 33.0426 64.2592 33.0426 64.0766C33.4077 61.5209 34.6856 59.3302 36.3286 57.5047C37.2413 56.4094 38.5192 55.6791 39.7971 55.4966C40.1622 55.4966 40.3448 55.1315 40.8924 54.9489C40.3448 54.5838 39.9797 54.2187 39.6145 54.0361C37.0588 52.9408 34.503 51.4804 33.4077 48.5595ZM22.2718 40.162C21.9067 39.9794 21.7242 39.7969 21.3591 39.6143C18.9859 38.1539 17.5254 36.1458 16.9778 33.4075C16.9778 33.0423 16.7952 32.6772 16.6126 32.3121C16.4301 32.1296 16.2475 31.7645 16.065 31.7645C15.8824 31.7645 15.5173 32.1296 15.3348 32.3121C14.422 35.5981 12.0488 38.1539 9.67557 40.5271C9.31046 40.8922 8.94535 41.4399 9.1279 41.805C9.31046 42.1701 9.85812 42.3526 10.4058 42.5352C12.779 43.0829 14.422 44.3607 15.3348 46.3688C15.6999 47.2816 16.065 48.1944 16.4301 49.1072C16.6126 49.4723 16.7952 49.8374 17.3429 50.385C17.708 49.6548 18.0731 49.2897 18.0731 48.9246C18.4382 46.1863 19.7161 43.9956 21.9067 42.3526C22.0893 42.3526 22.0893 42.1701 22.2718 42.1701C23.0021 41.4399 23.0021 40.8922 22.2718 40.162Z" fill="#FF79D7"/>
</g>
<defs>
<clipPath id="clip0_2001_1676">
<rect width="65.9023" height="65.9023" fill="white"/>
</clipPath>
</defs>
</svg>
